<svg xmlns="http://www.w3.org/2000/svg" viewBox="0 0 32 32" width="32" height="32">
  <defs>
    <linearGradient id="gradient" x1="0%" y1="0%" x2="100%" y2="100%">
      <stop offset="0%" style="stop-color:#3b82f6;stop-opacity:1" />
      <stop offset="100%" style="stop-color:#06b6d4;stop-opacity:1" />
    </linearGradient>
  </defs>
  
  <!-- Background circle -->
  <circle cx="16" cy="16" r="15" fill="url(#gradient)" stroke="#0e1624" stroke-width="2"/>
  
  <!-- M letter -->
  <path d="M8 12 L8 22 L10 22 L10 15 L12 18 L14 18 L16 15 L16 22 L18 22 L18 12 L16 12 L14 15 L12 15 L10 12 Z" fill="#ffffff" font-family="Inter, sans-serif" font-weight="700"/>
  
  <!-- S letter -->
  <path d="M20 12 C18.5 12 17.5 12.5 17 13.5 L19 14.5 C19.2 14 19.6 13.5 20.5 13.5 C21.2 13.5 21.5 13.8 21.5 14.2 C21.5 14.6 21.2 14.8 20.5 15.2 C19.2 15.8 18.5 16.5 18.5 17.8 C18.5 19.2 19.5 20.2 21 20.2 C22.2 20.2 23 19.8 23.5 19 L21.5 18 C21.3 18.3 21 18.5 20.5 18.5 C19.8 18.5 19.5 18.2 19.5 17.8 C19.5 17.4 19.8 17.2 20.5 16.8 C21.8 16.2 22.5 15.5 22.5 14.2 C22.5 12.8 21.5 12 20 12 Z" fill="#ffffff" font-family="Inter, sans-serif" font-weight="700"/>
</svg>
